<svg width="17" height="20" viewBox="0 0 17 20" fill="none" xmlns="http://www.w3.org/2000/svg">
<path d="M10.7177 20H6.28306C5.06354 20 4.06576 19.0362 4.06576 17.8582V15.6093C4.06576 15.3594 3.91794 15.1452 3.73316 15.0024C1.36805 13.4674 -0.0362433 10.8616 0.000711688 8.11289C0.0376667 3.79355 3.58534 0.259541 8.0569 0.00966146C10.422 -0.0974296 12.6393 0.687905 14.3762 2.25857C16.0761 3.82924 17 5.93537 17 8.21998C17 10.933 15.5957 13.4674 13.2675 15.0024C13.0458 15.1452 12.935 15.3594 12.935 15.6093V17.8582C12.935 19.0362 11.9372 20 10.7177 20ZM8.50036 1.43754C8.50036 1.43754 11.7524 1.25906 8.13081 1.43754C4.50922 1.61603 1.51587 4.61458 1.47891 8.11289C1.44196 10.3975 2.58756 12.5036 4.54617 13.7887C5.17441 14.1814 5.54396 14.8596 5.54396 15.5736V17.8582C5.54396 18.2508 5.87655 18.5721 6.28306 18.5721H10.7177C11.1242 18.5721 11.4568 18.2508 11.4568 17.8582V15.6093C11.4568 14.8953 11.8263 14.2171 12.4545 13.8244C14.3762 12.575 15.5218 10.4689 15.5218 8.21998C15.5218 6.32804 14.7457 4.57888 13.3415 3.29379C12.0111 2.08009 10.3111 1.43754 8.50036 1.43754ZM12.1959 17.1442H4.80486C4.39835 17.1442 4.06576 16.823 4.06576 16.4303C4.06576 16.0376 4.39835 15.7164 4.80486 15.7164H12.1959C12.6024 15.7164 12.935 16.0376 12.935 16.4303C12.935 16.823 12.6024 17.1442 12.1959 17.1442Z" fill="#72332E"/>
</svg>
