<svg width="35" height="35" viewBox="0 0 35 35" fill="none" xmlns="http://www.w3.org/2000/svg">
<circle cx="17.5" cy="17.5" r="17.5" fill="#3471D4"/>
<path d="M28.5001 16.8519V18.1403L28.2556 19.8075C27.3656 23.9922 23.9968 27.3589 19.8085 28.2479L18.1399 28.4923C17.7135 28.4745 17.2758 28.5165 16.8504 28.4923C7.18542 27.9385 2.89051 15.8698 10.1208 9.33385C16.963 3.1488 27.9767 7.7339 28.4995 16.8519H28.5001ZM17.4007 8.78654C15.3531 8.78331 12.9103 9.73477 11.4744 11.2018C11.2402 11.4407 11.1255 11.7787 11.4539 11.9977C11.8734 12.277 12.2363 11.713 12.5302 11.4832C13.844 10.457 15.1991 9.89461 16.8714 9.72132C17.0637 9.70141 17.2731 9.73962 17.468 9.71594C18.1426 9.6336 18.0979 8.78708 17.4007 8.786V8.78654ZM13.2964 13.2586C12.9696 13.637 13.2598 14.1552 13.7239 14.0513C13.8908 14.0137 14.4685 13.4518 14.6946 13.3028C15.6869 12.6489 16.332 12.6021 17.468 12.4659C18.1588 12.383 18.0484 11.5441 17.4685 11.5301C16.1527 11.4983 14.1675 12.2507 13.2964 13.2586ZM17.0561 13.8581C14.5202 14.1062 13.0676 16.9773 14.2483 19.2155C15.7499 22.0607 20.0551 21.6824 20.9881 18.6031C21.7737 16.0108 19.7342 13.5961 17.0561 13.8581ZM21.6929 21.7335C22.0197 21.3552 21.7295 20.837 21.2654 20.9408C21.0985 20.9785 20.5208 21.5403 20.2947 21.6894C19.3024 22.3433 18.6574 22.3901 17.5213 22.5262C16.8305 22.6091 16.9409 23.4481 17.5208 23.4621C18.8366 23.4939 20.8218 22.7415 21.6929 21.7335ZM23.2882 22.8734C23.0185 22.904 22.6755 23.3378 22.4585 23.5084C21.1631 24.5277 19.7692 25.1019 18.1173 25.2703C17.7663 25.3064 17.2263 25.1519 17.0653 25.5954C16.9603 25.8838 17.1913 26.1841 17.4858 26.2067C17.6656 26.2207 18.1276 26.1846 18.3273 26.1669C20.0088 26.0183 21.7694 25.2698 23.0605 24.1951C23.2263 24.0573 23.74 23.6246 23.769 23.4422C23.8164 23.1419 23.6086 22.8362 23.2882 22.8728V22.8734Z" fill="white"/>
<path d="M17.2683 16.6038C18.7187 16.3358 18.7952 18.5627 17.3442 18.3975C16.3696 18.2866 16.3465 16.7739 17.2683 16.6038Z" fill="white"/>
</svg>
