<svg width="100" height="37" viewBox="0 0 100 37" fill="none" xmlns="http://www.w3.org/2000/svg">
<path d="M86 6C93.1797 6 99 11.8203 99 19C99 26.1797 93.1797 32 86 32H16V6H86Z" fill="#FFEBCF" stroke="#72332E" stroke-width="2"/>
<path d="M14.5951 0.850098C6.53496 0.850098 0 7.08753 0 14.784C0 21.0423 9.65471 31.1881 13.2592 34.7579C14.004 35.4955 15.1862 35.4955 15.931 34.7579C19.5355 31.1881 29.1902 21.0423 29.1902 14.784C29.1902 7.08753 22.6553 0.850098 14.5951 0.850098Z" fill="#FFF129"/>
<path d="M14.5951 8.7701C11.5721 8.7701 9.12195 11.1338 9.12195 14.0501C9.12195 16.9664 11.5721 19.3301 14.5951 19.3301C17.6181 19.3301 20.0683 16.9664 20.0683 14.0501C20.0683 11.1338 17.6181 8.7701 14.5951 8.7701ZM14.5951 17.5701C12.581 17.5701 10.9463 15.9949 10.9463 14.0501C10.9463 12.1071 12.581 10.5301 14.5951 10.5301C16.6111 10.5301 18.2439 12.1071 18.2439 14.0501C18.2439 15.9949 16.6111 17.5701 14.5951 17.5701ZM14.5951 0.850098C6.53496 0.850098 0 7.08753 0 14.784C0 21.0423 9.65471 31.1881 13.2592 34.7579C14.004 35.4955 15.1862 35.4955 15.931 34.7579C19.5355 31.1881 29.1902 21.0423 29.1902 14.784C29.1902 7.08753 22.6553 0.850098 14.5951 0.850098ZM15.9236 32.1338C15.1809 32.873 14.0093 32.873 13.2666 32.1338C9.99675 28.879 1.82257 20.2037 1.82257 14.8139C1.82257 8.0749 7.54203 2.61362 14.5951 2.61362C21.6482 2.61362 27.3677 8.07666 27.3677 14.8139C27.3677 20.2037 19.1935 28.879 15.9236 32.1338Z" fill="#72332E"/>
<path d="M10.9462 14.05C10.9462 15.9948 12.5808 17.57 14.5949 17.57C16.6109 17.57 18.2437 15.9948 18.2437 14.05C18.2437 12.107 16.6109 10.53 14.5949 10.53C12.5808 10.53 10.9462 12.107 10.9462 14.05Z" fill="#FF9E5D"/>
</svg>
