<svg width="17" height="17" viewBox="0 0 17 17" fill="none" xmlns="http://www.w3.org/2000/svg">
<path d="M13.6 1.70024V0.000244141H3.4V1.70024H0V4.25024C0.00482155 5.27384 0.378909 6.26131 1.05351 7.03116C1.72811 7.80102 2.6579 8.30155 3.672 8.44074C3.96609 9.31396 4.49125 10.0912 5.19168 10.6898C5.89211 11.2885 6.74164 11.6862 7.65 11.8407V15.3002H5.1V17.0002H11.9V15.3002H9.35V11.8237C10.2584 11.6692 11.1079 11.2715 11.8083 10.6728C12.5088 10.0742 13.0339 9.29696 13.328 8.42374C14.3392 8.28497 15.2667 7.7869 15.941 7.02058C16.6152 6.25427 16.9911 5.2709 17 4.25024V1.70024H13.6ZM1.7 4.25024V3.40024H3.4V6.65574C2.90262 6.47989 2.47202 6.1541 2.16755 5.72328C1.86308 5.29245 1.69972 4.7778 1.7 4.25024ZM15.3 4.25024C15.3003 4.7778 15.1369 5.29245 14.8325 5.72328C14.528 6.1541 14.0974 6.47989 13.6 6.65574V3.40024H15.3V4.25024Z" fill="#72332E"/>
</svg>
