<svg width="83" height="36" viewBox="0 0 83 36" fill="none" xmlns="http://www.w3.org/2000/svg">
<path d="M69 5C76.1797 5 82 10.8203 82 18C82 25.1797 76.1797 31 69 31H22V5H69Z" fill="#FFEBCF" stroke="#72332E" stroke-width="2"/>
<path d="M27.3477 1.43311C32.041 1.43311 35.9998 5.63624 36 11.02C36 16.0138 33.4027 20.6506 30.0752 24.5259C26.7591 28.3878 22.8152 31.379 20.3457 33.0649C19.2186 33.8343 17.7814 33.8343 16.6543 33.0649C14.1848 31.379 10.2409 28.3878 6.9248 24.5259C3.59726 20.6506 1 16.0138 1 11.02C1.00022 5.63624 4.95904 1.43311 9.65234 1.43311C13.1446 1.43318 16.2115 3.74256 17.5713 7.15771L18.5 9.4917L19.4287 7.15771C20.7885 3.74256 23.8554 1.43318 27.3477 1.43311Z" fill="#FF7979" stroke="#860000" stroke-width="2"/>
</svg>
