<svg width="25" height="25" viewBox="0 0 25 25" fill="none" xmlns="http://www.w3.org/2000/svg">
<path d="M24.5458 10.5403L13.4579 0.387698C13.3824 0.312163 13.2928 0.252241 13.1941 0.211356C13.0955 0.17047 12.9897 0.149422 12.8829 0.149414C12.6673 0.149414 12.4602 0.235107 12.3079 0.387698L1.09678 10.5555C0.859455 10.7862 0.785867 11.1379 0.910425 11.4446C1.03498 11.7511 1.33316 11.9515 1.66414 11.9515H3.58124V23.9291C3.58124 24.3524 3.92465 24.6958 4.34802 24.6958H8.94868C9.37205 24.6958 9.71546 24.3524 9.71546 23.9291V15.908C9.71546 15.4843 10.0589 15.1412 10.4822 15.1412H15.0832C15.5066 15.1412 15.85 15.4846 15.85 15.908V23.9288C15.85 24.132 15.9306 24.3273 16.0746 24.4709C16.1458 24.5422 16.2303 24.5987 16.3233 24.6372C16.4164 24.6758 16.5161 24.6956 16.6168 24.6955H21.2174C21.6411 24.6955 21.9842 24.3521 21.9842 23.9288V11.9512H23.9472C24.1084 11.9463 24.2648 11.8953 24.3979 11.8042C24.531 11.7131 24.6351 11.5858 24.698 11.4373C24.7612 11.2889 24.7804 11.1255 24.7534 10.9665C24.7264 10.8074 24.6544 10.6595 24.5458 10.5403Z" fill="#72332E"/>
</svg>
