<svg width="13" height="13" viewBox="0 0 13 13" fill="none" xmlns="http://www.w3.org/2000/svg">
<g clip-path="url(#clip0_350_843)">
<path d="M4.59214 4.13289L4.27315 5.98399C4.21753 6.27041 4.49753 6.5613 4.7852 6.47032C5.35989 6.17622 5.93267 5.86482 6.51504 5.59442L8.12278 6.46135C8.40405 6.57284 8.67254 6.48441 8.77994 6.19416C8.73263 5.51369 8.53382 4.84027 8.46862 4.16045L9.81873 2.82065C9.97408 2.51887 9.86093 2.25296 9.53426 2.16646C8.99153 2.02229 8.33885 2.02421 7.78589 1.89991C7.75137 1.89222 7.71685 1.88453 7.68616 1.86531L6.83722 0.159016C6.76179 0.0597006 6.59303 -0.00821794 6.47029 0.00139318C6.36417 0.00972282 6.21522 0.0808451 6.15833 0.175034L5.31962 1.86531L3.3686 2.19785C3.22668 2.25552 3.12887 2.38495 3.11801 2.54001C3.10075 2.78285 3.24586 2.88665 3.39992 3.03787C3.78348 3.41462 4.22265 3.73948 4.5915 4.13289H4.59214ZM3.28038 9.22871H0.312932C0.229829 9.22871 0.0137586 9.45617 0.0303794 9.56446C0.102616 10.5397 -0.0629527 11.6488 0.0297401 12.608C0.0425253 12.7387 0.110926 12.854 0.220879 12.9277C0.239418 12.9399 0.333389 12.9969 0.339781 12.9969H3.36093C3.35262 12.9392 3.28038 12.7816 3.28038 12.7413V9.22807V9.22871ZM12.9767 10.1296C12.962 9.97517 12.797 9.74002 12.6398 9.74002H9.72604V12.7413C9.72604 12.7707 9.63463 12.9892 9.6455 12.9969H12.6666C12.7453 12.9969 12.9773 12.7618 12.9735 12.6586C12.9198 11.8461 13.0508 10.9292 12.976 10.129L12.9767 10.1296ZM8.55811 7.31738L4.40164 7.32378C4.19069 7.37056 4.06283 7.5442 4.05836 7.76077C4.08201 9.40876 4.01553 11.0683 4.0916 12.7092C4.15808 12.8726 4.29169 12.9943 4.47452 12.9988C5.86491 12.9847 7.25978 13.0225 8.64697 12.9796C8.82405 12.9168 8.9372 12.74 8.94806 12.5548V7.76141C8.94231 7.52626 8.794 7.34365 8.55747 7.31802L8.55811 7.31738Z" fill="white"/>
</g>
<defs>
<clipPath id="clip0_350_843">
<rect width="13" height="13" fill="white"/>
</clipPath>
</defs>
</svg>
