<svg width="36" height="37" viewBox="0 0 36 37" fill="none" xmlns="http://www.w3.org/2000/svg">
<circle cx="18.4" cy="18.4501" r="16.6" fill="#FFEBCF" stroke="#72332E" stroke-width="2"/>
<circle cx="18.3997" cy="18.45" r="13.6658" fill="#FFEBCF" stroke="#72332E"/>
<path d="M29.7142 20.5394C30.3711 17.9116 29.6485 16.1964 29.6485 16.1964L27.1349 16.0731C26.9146 15.2842 26.592 14.5402 26.1822 13.8521L27.8779 11.9269C26.4843 9.60431 24.7604 8.90249 24.7604 8.90249L22.8933 10.5949C22.1978 10.1903 21.4454 9.87686 20.6496 9.66466L20.4894 7.1355C17.8616 6.47845 16.1464 7.20132 16.1464 7.20132L16.0271 9.63236C15.2427 9.8295 14.4964 10.1204 13.8066 10.5044L12.0393 8.90246C12.0393 8.90246 10.3154 9.60428 8.92179 11.9269C9.36476 12.4297 10.2363 13.007 10.2886 13.7463C10.3015 13.9288 9.44978 16.0836 9.41305 16.0854L7.15118 16.1964C7.15118 16.1964 6.42852 17.9115 7.08537 20.5394L9.327 20.6815C9.5387 21.5728 9.87843 22.4123 10.3282 23.1822L8.85235 24.8104C8.85235 24.8104 9.55418 26.5342 11.8768 27.9278L13.5589 26.4463C14.3209 26.9025 15.1529 27.2501 16.0371 27.4713L16.1464 29.6984C16.1464 29.6984 17.8616 30.4212 20.4894 29.7643L20.6367 27.4398C21.5322 27.2024 22.3727 26.8356 23.1392 26.3569L24.9228 27.9279C27.2455 26.5343 27.9473 24.8104 27.9473 24.8104L26.3226 23.018C26.7229 22.2988 27.0233 21.5187 27.2198 20.6974L29.7142 20.5394ZM18.3998 23.8492C15.4179 23.8492 13.0005 21.4319 13.0005 18.4499C13.0005 15.4679 15.4179 13.0506 18.3998 13.0506C21.3818 13.0506 23.7992 15.4679 23.7992 18.4499C23.7992 21.4319 21.3818 23.8492 18.3998 23.8492Z" fill="#72332E"/>
</svg>
