<svg width="25" height="20" viewBox="0 0 25 20" fill="none" xmlns="http://www.w3.org/2000/svg">
<path d="M11.1455 0.758301C12.0254 0.330502 13.1091 0.619936 13.6436 1.46338C13.8373 1.76947 13.9404 2.1243 13.9404 2.48584V17.5142C13.9402 18.5826 13.0651 19.437 11.999 19.437C11.682 19.437 11.3702 19.3607 11.0908 19.2144L10.9727 19.147L5.26562 15.6245H2.77344C1.38859 15.6245 0.254883 14.5142 0.254883 13.1313V6.86768C0.255213 5.48515 1.38879 4.37451 2.77344 4.37451H5.26758L10.9727 0.853027L11.1455 0.758301ZM6.37695 6.87939C6.1603 7.01286 5.91071 7.08358 5.65625 7.0835H2.98438V12.9165H5.65625C5.91063 12.9165 6.16039 12.9872 6.37695 13.1206L11.2109 16.103V3.896L6.37695 6.87939ZM23.293 5.29248C23.6834 4.90225 24.3166 4.90225 24.707 5.29248C25.0975 5.68293 25.0973 6.316 24.707 6.70654L21.4141 9.99951L24.707 13.2925L24.7754 13.3687C25.0957 13.7613 25.0729 14.3404 24.707 14.7065C24.3409 15.0727 23.7619 15.0953 23.3691 14.7749L23.293 14.7065L20 11.4136L16.707 14.7065C16.3165 15.0971 15.6835 15.0971 15.293 14.7065C14.9027 14.316 14.9025 13.6829 15.293 13.2925L18.5859 9.99951L15.293 6.70654C14.9027 6.316 14.9025 5.68293 15.293 5.29248C15.6834 4.90225 16.3166 4.90225 16.707 5.29248L20 8.58545L23.293 5.29248Z" fill="#72332E"/>
</svg>
