<svg width="25" height="20" viewBox="0 0 25 20" fill="none" xmlns="http://www.w3.org/2000/svg">
<path d="M5.40827 4.87521L11.2351 1.27878C11.9103 0.862163 12.7995 1.06485 13.2216 1.73143C13.3649 1.95776 13.4407 2.21926 13.4407 2.48595V17.514C13.4407 18.3006 12.7952 18.9377 11.9991 18.9377C11.729 18.9377 11.4643 18.8628 11.2351 18.7215L5.40827 15.1248H2.77308C1.65846 15.1248 0.754883 14.2324 0.754883 13.1317V6.86832C0.754883 5.76754 1.65846 4.87521 2.77308 4.87521H5.40827ZM6.11464 6.45373C5.97682 6.53864 5.8181 6.58356 5.65622 6.58347H2.77308C2.61393 6.58347 2.48477 6.7109 2.48477 6.86832V13.132C2.48477 13.2891 2.61393 13.4168 2.77308 13.4168H5.65622C5.81826 13.4168 5.97712 13.4618 6.11464 13.5465L11.7108 17.0003V2.99972L6.11464 6.45373ZM20.0964 18.586C19.9306 18.7436 19.7095 18.8297 19.4807 18.8259C19.252 18.822 19.0339 18.7286 18.8734 18.5655C18.7945 18.4854 18.7324 18.3903 18.6906 18.2858C18.6489 18.1813 18.6284 18.0696 18.6303 17.9571C18.6322 17.8447 18.6566 17.7337 18.7019 17.6308C18.7472 17.5278 18.8125 17.4349 18.8942 17.3575C23.1555 13.2905 23.1555 6.70889 18.8942 2.64193C18.8126 2.56452 18.7473 2.47164 18.702 2.36871C18.6567 2.26577 18.6324 2.15485 18.6304 2.04241C18.6285 1.92997 18.649 1.81827 18.6907 1.71384C18.7324 1.60941 18.7945 1.51434 18.8734 1.43418C19.0339 1.27115 19.252 1.17765 19.4807 1.17383C19.7095 1.17 19.9306 1.25614 20.0964 1.41371C25.0612 6.15215 25.0612 13.8475 20.0964 18.586ZM17.207 15.1752C17.0395 15.3312 16.8175 15.4151 16.5887 15.409C16.36 15.4028 16.1428 15.3071 15.9839 15.1424C15.9059 15.0614 15.8449 14.9656 15.8043 14.8608C15.7637 14.7559 15.7444 14.644 15.7475 14.5316C15.7506 14.4192 15.7761 14.3086 15.8224 14.2061C15.8687 14.1037 15.935 14.0115 16.0174 13.9349C18.3481 11.7561 18.3481 8.24358 16.0174 6.0645C15.935 5.98794 15.8687 5.89574 15.8224 5.79329C15.7761 5.69084 15.7506 5.58019 15.7475 5.46779C15.7444 5.35539 15.7637 5.24349 15.8043 5.13863C15.8449 5.03377 15.9059 4.93805 15.9839 4.85704C16.1428 4.69231 16.36 4.59656 16.5887 4.59041C16.8175 4.58427 17.0395 4.66821 17.207 4.82418C20.2582 7.67705 20.2582 12.3224 17.207 15.1752Z" fill="#72332E" stroke="#72332E"/>
</svg>
