<svg width="99" height="37" viewBox="0 0 99 37" fill="none" xmlns="http://www.w3.org/2000/svg">
<path d="M85 6C92.1797 6 98 11.8203 98 19C98 26.1797 92.1797 32 85 32H27V6H85Z" fill="#FFEBCF" stroke="#72332E" stroke-width="2"/>
<circle cx="17.6" cy="18.4501" r="16.6" fill="#FFF129" stroke="#72332E" stroke-width="2"/>
<circle cx="17.5998" cy="18.45" r="13.6658" fill="#FF9E5D" stroke="#72332E"/>
<path d="M16.2552 7.28101C16.8055 6.16614 18.3945 6.16614 18.9447 7.28101L21.1019 11.6511C21.4661 12.3887 22.1698 12.8999 22.9838 13.0183L27.807 13.7195C29.0371 13.8984 29.5283 15.4103 28.6381 16.2781L25.1488 19.6794C24.5596 20.2538 24.29 21.0814 24.4291 21.8923L25.2533 26.6951C25.4635 27.9204 24.177 28.8547 23.0765 28.2761L18.7631 26.0085C18.0349 25.6259 17.165 25.6259 16.4369 26.0085L12.1234 28.2761C11.023 28.8547 9.73649 27.9204 9.94666 26.6951L10.7709 21.8923C10.91 21.0813 10.6404 20.2538 10.0511 19.6794L6.56189 16.2781C5.67167 15.4103 6.16278 13.8984 7.39294 13.7195L12.2162 13.0183C13.0302 12.8999 13.7339 12.3887 14.098 11.6511L16.2552 7.28101Z" fill="#FFF129" stroke="#72332E"/>
</svg>
